<?xml version="1.0" encoding="utf-8"?>
<!-- Generator: Adobe Illustrator 26.5.0, SVG Export Plug-In . SVG Version: 6.00 Build 0)  -->
<svg version="1.1" id="レイヤー_1" xmlns="http://www.w3.org/2000/svg" xmlns:xlink="http://www.w3.org/1999/xlink" x="0px"
	 y="0px" viewBox="0 0 841.9 595.3" style="enable-background:new 0 0 841.9 595.3;" xml:space="preserve">
<style type="text/css">
	.st0{display:none;}
	.st1{display:inline;}
	.st2{fill:#A16385;}
	.st3{display:inline;fill:#7BBAA7;}
	.st4{fill:#7BBAA7;}
	.st5{fill:#D6EEE7;}
	.st6{fill:#72B9E2;}
	.st7{fill:#DDF1FD;}
</style>
<g id="レイヤー_1_00000062194557334021175340000010294306266633408657_" class="st0">
	<g class="st1">
		<path class="st2" d="M232.2,382.4h377.2c8.8,0,16-7.2,16-16V143.1c0-8.8-7.2-16.1-16-16.1H232.2c-8.8,0-16.1,7.2-16.1,16.1v223.3
			C216.2,375.2,223.4,382.4,232.2,382.4z M241.1,158.4c0-3.6,2.9-6.5,6.5-6.5h346.5c3.5,0,6.5,2.9,6.5,6.5V351
			c0,3.5-2.9,6.5-6.5,6.5H247.5c-3.6,0-6.5-2.9-6.5-6.5L241.1,158.4L241.1,158.4z"/>
		<path class="st2" d="M671.5,460l-40-53.3c-3.3-4.4-10.6-8-16.1-8H226.2c-5.5,0-12.8,3.6-16.1,8l-40,53.3c-3.3,4.4-1.5,8,4,8h493.4
			C673,468,674.8,464.4,671.5,460z M465.3,449h-89c-0.6,0-1-0.5-0.7-1.1l6.4-14c0.3-0.6,1-1.1,1.7-1.1h74.1c0.6,0,1.4,0.5,1.7,1.1
			l6.4,14C466.2,448.5,465.9,449,465.3,449z"/>
	</g>
</g>
<g id="レイヤー_3" class="st0">
	<path class="st3" d="M609.4,127H232.3c-8.9,0-16.1,7.2-16.1,16.1v223.2c0,8.9,7.2,16.1,16.1,16.1h377.1c8.9,0,16.1-7.2,16.1-16.1
		V143.1C625.4,134.2,618.2,127,609.4,127z M600.5,351c0,3.6-2.9,6.5-6.5,6.5H247.6c-3.6,0-6.5-2.9-6.5-6.5V158.4
		c0-3.6,2.9-6.5,6.5-6.5H594c3.6,0,6.5,2.9,6.5,6.5V351z"/>
	<g id="レイヤー_4" class="st1">
		<path class="st4" d="M672.2,461l-26.7-35.6l0,0l-14.2-18.8c-4.1-4.9-10.2-7.8-16.6-7.8H420H226.7c-6.4,0-12.4,2.9-16.5,7.8
			l-15.6,20.9L169.4,461c-2.4,2.8-0.4,7.1,3.3,7.1h248l0,0h248C672.5,468,674.5,463.8,672.2,461z M420.8,427.2L420.8,427.2v20.1
			V427.2z"/>
	</g>
	<g id="レイヤー_5" class="st1">
		<path class="st5" d="M465.7,449H376c-0.4,0-0.7-0.4-0.5-0.8l6.4-14.2c0.3-0.7,1-1.2,1.8-1.2h74c1,0,1.8,0.6,2.2,1.4l6.3,14
			C466.3,448.6,466,449,465.7,449z"/>
	</g>
</g>
<g id="レイヤー_3のコピー">
	<path class="st6" d="M609.4,127H232.3c-8.9,0-16.1,7.2-16.1,16.1v223.2c0,8.9,7.2,16.1,16.1,16.1h377.1c8.9,0,16.1-7.2,16.1-16.1
		V143.1C625.4,134.2,618.2,127,609.4,127z M600.5,351c0,3.6-2.9,6.5-6.5,6.5H247.6c-3.6,0-6.5-2.9-6.5-6.5V158.4
		c0-3.6,2.9-6.5,6.5-6.5H594c3.6,0,6.5,2.9,6.5,6.5V351z"/>
	<g id="レイヤー_4のコピー">
		<path class="st6" d="M672.2,461l-26.7-35.6l0,0l-14.2-18.8c-4.1-4.9-10.2-7.8-16.6-7.8H420H226.7c-6.4,0-12.4,2.9-16.5,7.8
			l-15.6,20.9L169.4,461c-2.4,2.8-0.4,7.1,3.3,7.1h248l0,0h248C672.5,468,674.5,463.8,672.2,461z M420.8,427.2L420.8,427.2v20.1
			V427.2z"/>
	</g>
	<g id="レイヤー_5のコピー">
		<path class="st7" d="M465.7,449H376c-0.4,0-0.7-0.4-0.5-0.8l6.4-14.2c0.3-0.7,1-1.2,1.8-1.2h74c1,0,1.8,0.6,2.2,1.4l6.3,14
			C466.3,448.6,466,449,465.7,449z"/>
	</g>
</g>
</svg>
