<?xml version="1.0" encoding="utf-8"?>
<!-- Generator: Adobe Illustrator 24.3.0, SVG Export Plug-In . SVG Version: 6.00 Build 0)  -->
<svg version="1.1" id="レイヤー_1" xmlns="http://www.w3.org/2000/svg" xmlns:xlink="http://www.w3.org/1999/xlink" x="0px"
	 y="0px" viewBox="0 0 841.89 595.28" style="enable-background:new 0 0 841.89 595.28;" xml:space="preserve">
<style type="text/css">
	.st0{fill:#A16385;}
</style>
<g>
	<path class="st0" d="M232.23,382.38h377.15c8.83,0,16.05-7.22,16.05-16.05V143.07c0-8.83-7.22-16.05-16.05-16.05H232.23
		c-8.83,0-16.05,7.22-16.05,16.05v223.26C216.18,375.16,223.4,382.38,232.23,382.38z M241.08,158.38c0-3.55,2.91-6.46,6.46-6.46
		h346.53c3.55,0,6.46,2.91,6.46,6.46v192.65c0,3.55-2.91,6.46-6.46,6.46H247.54c-3.55,0-6.46-2.91-6.46-6.46V158.38z"/>
	<path class="st0" d="M671.51,460.02l-40.05-53.28c-3.32-4.42-10.56-8.03-16.08-8.03H226.23c-5.53,0-12.76,3.61-16.08,8.03
		l-40.06,53.28c-3.32,4.42-1.52,8.03,4.01,8.03h493.4C673.03,468.05,674.83,464.44,671.51,460.02z M465.3,448.95h-88.99
		c-0.64,0-0.95-0.48-0.68-1.07l6.44-14c0.27-0.59,1.02-1.07,1.66-1.07h74.15c0.64,0,1.39,0.48,1.66,1.07l6.44,14
		C466.25,448.47,465.94,448.95,465.3,448.95z"/>
</g>
</svg>
